<svg width="36" height="36" viewBox="0 0 36 36" fill="none" xmlns="http://www.w3.org/2000/svg">
<path fill-rule="evenodd" clip-rule="evenodd" d="M16.7489 4C14.7158 4.00017 12.7122 4.48655 10.9053 5.41854C9.09839 6.35054 7.54055 7.70113 6.36177 9.35763C5.18298 11.0141 4.41743 12.9285 4.12898 14.9411C3.84053 16.9536 4.03754 19.006 4.70358 20.9269C5.36963 22.8478 6.48539 24.5816 7.95777 25.9836C9.43016 27.3856 11.2165 28.4152 13.1677 28.9864C15.1189 29.5576 17.1784 29.654 19.1744 29.2674C21.1705 28.8808 23.0451 28.0224 24.6419 26.764L30.1199 32.242C30.4028 32.5152 30.7817 32.6664 31.175 32.663C31.5683 32.6596 31.9445 32.5018 32.2226 32.2237C32.5008 31.9456 32.6585 31.5694 32.6619 31.1761C32.6653 30.7828 32.5142 30.4039 32.2409 30.121L26.7629 24.643C28.2449 22.7629 29.1677 20.5036 29.4256 18.1236C29.6835 15.7436 29.2661 13.339 28.2213 11.1851C27.1764 9.03125 25.5462 7.21503 23.5174 5.94435C21.4885 4.67366 19.1429 3.99984 16.7489 4ZM6.99892 16.75C6.99892 14.1641 8.02614 11.6842 9.85462 9.85571C11.6831 8.02723 14.1631 7 16.7489 7C19.3348 7 21.8147 8.02723 23.6432 9.85571C25.4717 11.6842 26.4989 14.1641 26.4989 16.75C26.4989 19.3359 25.4717 21.8158 23.6432 23.6443C21.8147 25.4728 19.3348 26.5 16.7489 26.5C14.1631 26.5 11.6831 25.4728 9.85462 23.6443C8.02614 21.8158 6.99892 19.3359 6.99892 16.75Z" fill="white"/>
</svg>
