<svg width="39" height="39" viewBox="0 0 39 39" fill="none" xmlns="http://www.w3.org/2000/svg">
<path d="M6.08075 33.4019C8.03075 35.75 11.6577 35.75 18.915 35.75H20.085C27.3422 35.75 30.9709 35.75 32.9209 33.4019M6.08075 33.4019C4.13075 31.0521 4.80025 27.4869 6.13762 20.3531C7.08825 15.2831 7.56275 12.7465 9.36812 11.2482M32.9209 33.4019C34.8709 31.0521 34.2014 27.4869 32.864 20.3531C31.9134 15.2831 31.4373 12.7465 29.6319 11.2482M29.6319 11.2482C27.8281 9.75 25.246 9.75 20.0866 9.75H18.9134C13.754 9.75 11.1735 9.75 9.36812 11.2482" stroke="black" stroke-width="3"/>
<path d="M14.625 9.75V8.125C14.625 6.83207 15.1386 5.59209 16.0529 4.67785C16.9671 3.76361 18.2071 3.25 19.5 3.25C20.7929 3.25 22.0329 3.76361 22.9471 4.67785C23.8614 5.59209 24.375 6.83207 24.375 8.125V9.75" stroke="black" stroke-width="3" stroke-linecap="round"/>
</svg>
