<svg width="44" height="44" viewBox="0 0 44 44" fill="none" xmlns="http://www.w3.org/2000/svg">
<path d="M34.8333 9.16669L24.9333 19.0667M34.8333 9.16669H25.6667M34.8333 9.16669V18.3334M9.16667 25.6667C9.16667 28.0978 10.1324 30.4294 11.8515 32.1485C13.5706 33.8676 15.9022 34.8334 18.3333 34.8334C20.7645 34.8334 23.0961 33.8676 24.8152 32.1485C26.5342 30.4294 27.5 28.0978 27.5 25.6667C27.5 23.2355 26.5342 20.904 24.8152 19.1849C23.0961 17.4658 20.7645 16.5 18.3333 16.5C15.9022 16.5 13.5706 17.4658 11.8515 19.1849C10.1324 20.904 9.16667 23.2355 9.16667 25.6667Z" stroke="black" stroke-width="3" stroke-linecap="round" stroke-linejoin="round"/>
</svg>
